<?xml version="1.0" encoding="utf-8" ?>
<svg xmlns="http://www.w3.org/2000/svg" xmlns:xlink="http://www.w3.org/1999/xlink" width="1024" height="1024">
	<path fill="#F8FBFD" d="M0 0L1024 0L1024 1024L0 1024L0 0Z"/>
	<path fill="#0E5F6D" d="M475.251 78.8238C477.562 68.5654 482.833 60.6938 491.785 55.026Q492.601 54.5104 493.441 54.0359Q494.281 53.5614 495.144 53.1292Q496.007 52.697 496.89 52.3081Q497.773 51.9192 498.675 51.5746Q499.576 51.2301 500.493 50.9306Q501.411 50.6312 502.342 50.3777Q503.273 50.1241 504.215 49.9171Q505.158 49.7101 506.109 49.5501Q507.061 49.3901 508.02 49.2775Q508.978 49.1649 509.941 49.1Q510.904 49.0351 511.868 49.0181Q512.833 49.0011 513.798 49.0319Q514.762 49.0628 515.724 49.1415Q516.686 49.2201 517.642 49.3465Q518.599 49.4728 519.548 49.6464Q520.498 49.82 521.437 50.0405C531.443 52.3647 540.679 58.7879 546.019 67.5986C548.165 71.1403 549.541 74.9655 550.574 78.9628Q554.619 79.323 558.657 79.7607Q562.694 80.1984 566.723 80.7135Q570.751 81.2287 574.769 81.821Q578.787 82.4134 582.792 83.0828Q586.798 83.7521 590.79 84.4982Q594.782 85.2444 598.759 86.0669Q602.736 86.8895 606.697 87.7883Q610.657 88.6871 614.6 89.6617Q618.542 90.6363 622.465 91.6864Q626.388 92.7365 630.291 93.8617Q634.193 94.9869 638.073 96.1868Q641.953 97.3867 645.809 98.6609Q649.665 99.935 653.496 101.283Q657.327 102.631 661.131 104.052Q664.936 105.473 668.712 106.967Q672.489 108.461 676.236 110.027Q679.983 111.593 683.699 113.231Q687.415 114.869 691.1 116.578Q694.784 118.286 698.435 120.066Q702.085 121.845 705.701 123.694Q709.317 125.543 712.897 127.461Q716.477 129.379 720.019 131.365Q723.561 133.351 727.065 135.405Q730.568 137.459 734.032 139.58Q737.495 141.701 740.917 143.888Q744.34 146.075 747.719 148.327Q751.099 150.579 754.434 152.896Q757.77 155.212 761.06 157.593Q764.351 159.973 767.595 162.416Q770.84 164.859 774.036 167.363Q777.233 169.868 780.381 172.434Q783.53 174.999 786.628 177.625Q790.755 181.097 794.794 184.67Q798.833 188.243 802.782 191.916Q806.731 195.588 810.588 199.358Q814.445 203.127 818.207 206.991Q821.969 210.855 825.634 214.811Q829.299 218.767 832.864 222.813Q836.43 226.859 839.894 230.992Q843.358 235.125 846.719 239.343Q850.079 243.561 853.334 247.861Q856.588 252.161 859.735 256.54Q862.882 260.919 865.92 265.376Q868.957 269.832 871.883 274.362Q874.808 278.892 877.621 283.494Q880.433 288.095 883.13 292.765Q885.828 297.435 888.408 302.17Q890.989 306.906 893.451 311.703Q895.913 316.501 898.256 321.359Q900.598 326.217 902.819 331.131Q905.04 336.045 907.139 341.013Q909.237 345.981 911.211 350.999Q913.186 356.018 915.035 361.083Q916.884 366.149 918.607 371.259Q920.33 376.37 921.926 381.521Q923.521 386.672 924.989 391.862Q926.456 397.051 927.794 402.276Q929.132 407.5 930.339 412.756Q931.547 418.011 932.624 423.296Q933.701 428.58 934.647 433.889Q935.592 439.199 936.406 444.53Q937.219 449.861 937.9 455.211Q938.581 460.56 939.129 465.925Q939.677 471.29 940.091 476.667Q940.476 481.422 940.755 486.184Q941.035 490.946 941.209 495.714Q941.383 500.481 941.451 505.251Q941.52 510.021 941.483 514.791Q941.445 519.561 941.303 524.33Q941.16 529.098 940.912 533.862Q940.663 538.626 940.31 543.383Q939.956 548.14 939.497 552.889Q939.038 557.637 938.474 562.374Q937.91 567.111 937.242 571.834Q936.573 576.558 935.8 581.265Q935.027 585.972 934.15 590.662Q933.273 595.351 932.292 600.019Q931.311 604.688 930.227 609.333Q929.144 613.979 927.957 618.6Q926.771 623.22 925.483 627.813Q924.194 632.407 922.804 636.97Q921.415 641.534 919.924 646.065Q918.434 650.597 916.843 655.094Q915.253 659.592 913.563 664.053Q911.874 668.514 910.086 672.937Q908.298 677.36 906.413 681.742Q904.527 686.124 902.545 690.463Q900.563 694.802 898.486 699.097Q896.408 703.391 894.236 707.638Q892.064 711.885 889.799 716.084Q887.533 720.282 885.175 724.429Q882.817 728.576 880.368 732.669Q877.919 736.763 875.38 740.802Q872.84 744.84 870.213 748.821Q867.584 752.803 864.869 756.725Q862.154 760.647 859.352 764.508Q847.291 781.024 833.871 796.455C827.617 803.516 820.943 810.223 814.848 817.42C829.452 833.222 838.664 851.645 840.871 873.122C843.252 896.293 836.906 920.479 822.094 938.631Q821.371 939.533 820.625 940.417Q819.88 941.302 819.112 942.167Q818.345 943.032 817.556 943.878Q816.768 944.724 815.958 945.55Q815.149 946.376 814.319 947.182Q813.489 947.988 812.64 948.773Q811.79 949.557 810.922 950.321Q810.053 951.084 809.165 951.826Q808.278 952.567 807.372 953.286Q806.466 954.006 805.543 954.702Q804.62 955.399 803.68 956.072Q802.739 956.745 801.783 957.395Q800.826 958.045 799.853 958.67Q798.88 959.296 797.893 959.898Q796.905 960.499 795.902 961.075Q794.9 961.652 793.883 962.203Q792.866 962.755 791.836 963.281Q790.806 963.807 789.764 964.307Q788.721 964.807 787.666 965.281Q786.611 965.755 785.545 966.203Q784.478 966.651 783.401 967.072Q782.324 967.493 781.237 967.887Q780.149 968.281 779.053 968.648Q777.956 969.015 776.85 969.355Q775.745 969.694 774.631 970.006Q773.517 970.318 772.396 970.602Q771.275 970.886 770.147 971.143Q769.02 971.399 767.886 971.627Q766.752 971.855 765.613 972.055Q764.474 972.254 763.33 972.426Q762.186 972.597 761.039 972.74Q759.891 972.883 758.74 972.997C747.281 974.133 735.393 973.528 723.874 973.537L663.226 973.535L474.11 973.329L333.634 973.406L293.242 973.416C283.764 973.418 274.001 973.841 264.591 972.532C246.685 970.041 231.161 963.041 217.311 951.571C198.485 935.979 186.528 914.483 184.359 889.998C181.685 859.818 191.152 838.577 210.065 815.855Q206.735 812.56 203.478 809.193Q200.221 805.826 197.038 802.389Q193.855 798.952 190.748 795.446Q187.641 791.94 184.611 788.368Q181.581 784.795 178.629 781.157Q175.678 777.519 172.807 773.818Q169.935 770.117 167.145 766.354Q164.355 762.59 161.648 758.767Q158.941 754.944 156.318 751.063Q153.695 747.182 151.157 743.245Q148.619 739.307 146.167 735.315Q143.716 731.323 141.352 727.279Q138.988 723.234 136.713 719.14Q134.438 715.045 132.252 710.901Q130.067 706.757 127.973 702.567Q125.878 698.377 123.876 694.142Q121.873 689.907 119.964 685.629Q118.054 681.352 116.238 677.034Q114.422 672.715 112.701 668.359Q110.979 664.002 109.353 659.609Q107.727 655.215 106.198 650.787Q104.668 646.36 103.235 641.9Q101.802 637.44 100.467 632.95Q99.1318 628.459 97.8948 623.941Q96.6578 619.423 95.5196 614.879Q94.3815 610.335 93.3427 605.767Q92.3038 601.199 91.3649 596.609Q90.4259 592.02 89.5873 587.411Q88.7486 582.802 88.0107 578.176Q87.2727 573.55 86.6358 568.909Q85.9989 564.268 85.4634 559.614Q84.9278 554.96 84.4939 550.296Q83.9799 545.048 83.5958 539.789Q83.2117 534.53 82.9577 529.263Q82.7037 523.996 82.58 518.724Q82.4562 513.453 82.4628 508.18Q82.4694 502.907 82.6063 497.635Q82.7432 492.364 83.0104 487.098Q83.2776 481.832 83.6748 476.574Q84.0721 471.315 84.5992 466.069Q85.1263 460.822 85.7829 455.59Q86.4395 450.358 87.2252 445.144Q88.0109 439.93 88.9253 434.737Q89.8397 429.543 90.8821 424.374Q91.9245 419.205 93.0944 414.064Q94.2643 408.922 95.5609 403.811Q96.8576 398.7 98.2801 393.622Q99.7027 388.545 101.25 383.504Q102.798 378.463 104.47 373.462Q106.141 368.461 107.936 363.503Q109.731 358.545 111.648 353.632Q113.565 348.72 115.602 343.857Q117.64 338.993 119.797 334.182Q121.954 329.37 124.23 324.613Q126.505 319.856 128.898 315.157Q131.29 310.458 133.798 305.82Q136.306 301.181 138.928 296.606Q141.549 292.031 144.283 287.522Q147.017 283.013 149.862 278.573Q152.706 274.133 155.66 269.765Q158.613 265.396 161.674 261.102Q164.734 256.808 167.9 252.591Q171.066 248.374 174.335 244.237Q177.604 240.099 180.974 236.044C243.055 161.592 323.86 110.113 418.504 88.3513C437.392 84.0086 455.917 80.5781 475.251 78.8238Z"/>
	<path fill="#F8FBFD" d="M475.732 852.559C485.027 852.369 494.358 852.577 503.658 852.569C509.862 852.563 516.531 852.083 522.665 852.847C524.585 853.086 526.359 853.497 527.833 854.829C529.29 856.147 530.131 857.91 530.157 859.88C530.185 862.082 529.306 864.085 527.695 865.578C523.811 869.178 512.972 867.647 507.915 867.537C507.218 879.256 507.789 891.362 507.764 903.125C507.741 907.431 508.504 914.085 505.849 917.671C504.683 919.246 502.962 919.959 501.05 920.119C498.945 920.296 496.653 919.922 495.058 918.435C493.716 917.183 493.066 915.344 492.771 913.573C491.993 908.903 492.534 903.486 492.523 898.72L492.46 867.683C487.615 867.781 482.082 868.351 477.343 867.334C475.059 866.844 472.73 865.833 471.508 863.73C470.507 862.007 470.438 859.859 470.94 857.965C471.621 855.391 473.535 853.844 475.732 852.559Z"/>
	<path fill="#F8FBFD" d="M301.602 851.646C304.204 851.332 307.226 851.349 309.834 851.583C315.591 852.1 324.1 855.048 327.829 859.593C329.403 861.511 329.838 864.081 329.547 866.501C329.353 868.12 328.374 869.462 327.05 870.362C319.595 875.428 316.083 867.854 309.635 866.564C304.622 865.561 299.165 866.634 294.964 869.534Q294.531 869.836 294.114 870.16Q293.696 870.484 293.296 870.829Q292.896 871.173 292.513 871.538Q292.131 871.902 291.767 872.285Q291.404 872.668 291.06 873.07Q290.716 873.471 290.393 873.889Q290.07 874.307 289.769 874.74Q289.467 875.174 289.188 875.622Q288.909 876.071 288.653 876.533Q288.397 876.995 288.164 877.469Q287.932 877.943 287.723 878.429Q287.515 878.914 287.332 879.409Q287.148 879.905 286.99 880.409Q286.832 880.913 286.699 881.424Q286.566 881.935 286.46 882.453Q286.353 882.97 286.273 883.492C285.578 888.311 286.705 894.268 289.833 898.1C292.151 900.94 295.276 902.945 298.696 904.207C311.659 908.993 314.592 899.43 324.948 900.523L325.675 900.605C327.415 902.059 328.891 903.635 329.516 905.88C330.068 907.865 329.643 909.773 328.54 911.484C325.412 916.335 317.8 919.441 312.261 920.487C303.632 922.117 293.073 919.391 285.878 914.464C278.511 909.42 273.145 901.411 271.58 892.597C269.98 883.583 271.917 873.53 277.214 866.01C283.038 857.74 291.83 853.334 301.602 851.646Z"/>
	<path fill="#F8FBFD" d="M440.046 853.038C441.168 852.993 442.31 852.942 443.426 853.09C445.68 853.389 447.66 854.451 448.988 856.327C452.95 861.927 457.135 873.282 460.168 879.806C464.871 889.925 470.951 900.469 474.374 911.046C474.751 912.213 475.035 913.263 474.722 914.48C474.191 916.542 473.058 918.091 471.14 919.064C469.109 920.095 466.085 920.492 463.938 919.606C459.614 917.821 457.717 910.802 456.066 906.771L445.625 906.815Q437.308 906.759 428.996 907.047C426.329 910.993 424.712 918.047 420.232 920.173C418.498 920.996 416.254 920.989 414.476 920.299C412.853 919.67 411.498 918.328 410.793 916.745C409.495 913.83 410.7 910.807 411.736 907.999C414.414 900.744 431.285 861.696 435.198 856.524C436.53 854.763 438.073 853.944 440.046 853.038Z"/>
	<path fill="#0E5F6D" d="M442.089 876.769C443.891 878.307 448.572 890.422 449.998 893.498L442.375 893.452L435.008 893.423C436.429 887.656 439.175 881.921 442.089 876.769Z"/>
	<path fill="#F8FBFD" d="M349.694 851.54C351.743 851.657 353.669 852.188 355.144 853.681C359.267 857.854 357.582 872.957 357.514 879.046C366.471 878.929 375.447 879.282 384.4 879.536C384.507 873.088 383.644 866.081 384.613 859.719C384.969 857.385 385.917 854.427 388.088 853.145C389.665 852.214 392.053 852.205 393.808 852.501C395.711 852.821 397.933 853.908 398.845 855.72C400.679 859.362 400.909 912.019 399.001 916.448C397.909 918.982 395.37 919.782 392.965 920.591C390.65 920.532 388.287 920.04 386.636 918.297C382.286 913.701 383.999 900.077 384.052 893.984L357.672 894.003C357.81 900.446 359.22 910.469 356.575 916.371C355.754 918.202 354.36 919.723 352.441 920.417C350.476 921.127 348.11 920.812 346.289 919.839C344.626 918.951 343.4 917.641 342.881 915.811C341.574 911.214 341.942 858.352 343.533 855.549C344.861 853.209 347.254 852.283 349.694 851.54Z"/>
	<path fill="#F8FBFD" d="M707.59 852.035C708.845 851.946 710.082 851.899 711.332 852.092C712.811 852.321 713.993 852.99 715.12 853.958C721.647 859.56 737.379 882.019 743.101 890.093C743.049 881.837 741.561 862.919 744.728 856.17C745.567 854.384 746.79 852.868 748.718 852.235C750.656 851.598 753.097 852.106 754.823 853.119C757.066 854.434 758.327 856.773 758.89 859.245C760.528 866.439 759.06 888.811 758.98 897.718C758.937 902.433 759.493 907.539 759.022 912.209C758.841 913.998 758.394 915.794 757.365 917.296C755.756 919.646 753.312 920.026 750.709 920.589C748.855 920.182 747.39 919.712 745.924 918.489C738.969 912.689 722.167 888.442 716.01 879.867C715.945 888.692 717.058 904.265 715.726 912.174C715.344 914.44 714.538 917.197 712.71 918.746C711.271 919.967 709.138 920.096 707.351 919.824C705.193 919.494 703.015 918.29 701.828 916.42C700.88 914.928 700.639 913.028 700.491 911.301C699.977 905.338 699.949 862.918 701.028 859.144C702.087 855.441 704.282 853.75 707.59 852.035Z"/>
	<path fill="#F8FBFD" d="M600.558 852.55C603.026 852.589 605.444 852.831 607.407 854.495C609.574 856.33 609.909 858.837 610.129 861.509C610.754 869.124 611.767 914.027 608.114 917.996C606.781 919.445 604.677 920.028 602.762 919.987C600.59 919.94 598.198 919.167 596.691 917.545C595.545 916.311 594.961 914.673 594.663 913.041C594.068 909.77 594.509 906.243 594.51 902.929L594.443 882.656C591.483 888.313 583.017 903.409 578.048 906.564C576.692 907.425 575.185 907.784 573.591 907.409C567.543 905.985 558.932 890.115 555.584 884.889L555.591 902.367C555.666 906.36 556.704 914.282 554.056 917.36C552.44 919.238 549.912 920.125 547.484 920.117C545.592 920.11 543.707 919.503 542.4 918.088C541.28 916.878 540.627 915.443 540.351 913.828C539.257 907.408 540.013 900.001 540.065 893.472C540.16 881.673 540.088 869.835 540.566 858.047C541.482 856.734 542.312 855.386 543.628 854.428C545.192 853.289 547.03 852.686 548.964 853.034C556.992 854.481 569.396 880.5 574.57 887.633L575.005 888.227C580.566 879.643 590.035 861.033 596.675 854.86C597.794 853.82 599.185 853.183 600.558 852.55Z"/>
	<path fill="#F8FBFD" d="M651.307 852.188C659.246 851.131 667.877 853.387 674.436 857.898Q675.17 858.398 675.879 858.933Q676.587 859.469 677.269 860.039Q677.95 860.609 678.603 861.212Q679.255 861.815 679.877 862.449Q680.499 863.083 681.088 863.747Q681.678 864.412 682.234 865.104Q682.791 865.797 683.312 866.516Q683.833 867.235 684.319 867.979Q684.804 868.723 685.252 869.49Q685.7 870.257 686.109 871.045Q686.519 871.834 686.889 872.641Q687.259 873.449 687.589 874.273Q687.919 875.098 688.208 875.938Q688.496 876.778 688.743 877.631Q688.99 878.485 689.195 879.349Q689.399 880.214 689.561 881.087C691.132 889.654 689.14 897.81 684.195 904.901C678.211 913.48 670.154 918.026 660.016 919.895C650.73 920.896 642.142 919.699 634.503 913.86C627.246 908.314 621.439 899.247 620.288 890.106Q620.188 889.298 620.129 888.486Q620.069 887.674 620.05 886.86Q620.031 886.046 620.053 885.232Q620.075 884.418 620.137 883.606Q620.2 882.794 620.302 881.986Q620.405 881.178 620.548 880.376Q620.691 879.575 620.873 878.781Q621.056 877.988 621.278 877.204Q621.5 876.421 621.761 875.649Q622.021 874.878 622.32 874.121Q622.619 873.363 622.956 872.622Q623.292 871.88 623.665 871.156Q624.038 870.432 624.446 869.728Q624.855 869.023 625.298 868.34Q625.741 867.657 626.217 866.997Q626.694 866.337 627.203 865.701C633.367 857.847 641.419 853.341 651.307 852.188Z"/>
	<path fill="#0E5F6D" d="M651.882 867.06C656.647 866.813 660.691 867.411 664.774 870.054C669.195 872.916 672.497 877.564 673.559 882.743Q673.659 883.221 673.734 883.703Q673.809 884.185 673.859 884.67Q673.91 885.155 673.935 885.642Q673.959 886.13 673.959 886.618Q673.959 887.105 673.933 887.593Q673.908 888.08 673.857 888.565Q673.806 889.05 673.73 889.532Q673.654 890.014 673.554 890.492Q673.453 890.969 673.328 891.441Q673.203 891.912 673.053 892.377Q672.904 892.841 672.73 893.297Q672.557 893.753 672.36 894.2Q672.164 894.646 671.944 895.082Q671.725 895.518 671.483 895.941Q671.241 896.365 670.978 896.776Q670.714 897.187 670.43 897.583C667.085 902.2 662.633 904.04 657.21 904.886C652.932 905.055 648.959 904.462 645.174 902.346C640.677 899.832 637.213 895.516 635.944 890.5C634.757 885.815 635.696 880.894 638.17 876.781C641.299 871.579 646.129 868.613 651.882 867.06Z"/>
	<path fill="#70D2B8" d="M550.989 91.478C565.109 92.1875 579.88 94.8139 593.76 97.5161Q597.809 98.342 601.841 99.2484Q605.874 100.155 609.887 101.141Q613.9 102.128 617.893 103.195Q621.885 104.261 625.856 105.407Q629.827 106.553 633.774 107.778Q637.721 109.003 641.643 110.306Q645.564 111.609 649.46 112.99Q653.355 114.372 657.221 115.83Q661.088 117.289 664.925 118.824Q668.762 120.36 672.567 121.971Q676.373 123.583 680.146 125.27Q683.918 126.957 687.656 128.719Q691.395 130.481 695.097 132.318Q698.799 134.154 702.464 136.064Q706.13 137.973 709.756 139.956Q713.382 141.938 716.968 143.992Q720.554 146.047 724.098 148.172Q727.642 150.298 731.144 152.493Q734.645 154.689 738.102 156.954Q741.558 159.219 744.969 161.552Q748.38 163.886 751.744 166.287Q755.107 168.688 758.422 171.156Q761.738 173.623 765.003 176.157Q768.268 178.69 771.482 181.288Q774.696 183.886 777.858 186.547Q781.02 189.208 784.128 191.932Q787.235 194.656 790.289 197.442Q793.342 200.227 796.338 203.073Q799.335 205.918 802.275 208.823Q805.214 211.728 808.095 214.691Q810.977 217.654 813.798 220.674Q816.619 223.694 819.38 226.769Q822.868 230.61 826.26 234.537Q829.653 238.463 832.948 242.471Q836.243 246.479 839.438 250.567Q842.633 254.656 845.727 258.821Q848.821 262.987 851.811 267.227Q854.801 271.467 857.687 275.78Q860.572 280.093 863.35 284.475Q866.128 288.857 868.798 293.307Q871.467 297.756 874.026 302.27Q876.586 306.783 879.033 311.358Q881.481 315.934 883.815 320.568Q886.149 325.202 888.369 329.892Q890.589 334.582 892.692 339.325Q894.796 344.068 896.782 348.862Q898.768 353.655 900.636 358.496Q902.503 363.337 904.252 368.222Q906 373.108 907.627 378.035Q909.254 382.962 910.76 387.927Q912.266 392.893 913.649 397.894Q915.032 402.895 916.292 407.928Q917.551 412.962 918.687 418.025Q919.822 423.088 920.833 428.177Q921.844 433.266 922.729 438.379Q923.614 443.492 924.373 448.625Q925.132 453.757 925.765 458.907Q926.397 464.057 926.903 469.221Q927.409 474.385 927.787 479.56Q928.166 484.735 928.417 489.918Q928.668 495.101 928.792 500.288Q928.915 505.475 928.911 510.664Q928.907 515.853 928.776 521.04Q928.644 526.227 928.385 531.409Q928.176 536.256 927.853 541.097Q927.53 545.938 927.093 550.771Q926.656 555.603 926.105 560.423Q925.555 565.244 924.891 570.05Q924.227 574.856 923.45 579.645Q922.674 584.435 921.784 589.204Q920.895 593.974 919.894 598.721Q918.893 603.469 917.78 608.191Q916.668 612.914 915.444 617.609Q914.221 622.304 912.888 626.969Q911.554 631.634 910.111 636.266Q908.668 640.898 907.117 645.495Q905.565 650.093 903.906 654.652Q902.247 659.211 900.481 663.73Q898.715 668.249 896.843 672.725Q894.971 677.202 892.995 681.633Q891.018 686.063 888.937 690.447Q886.857 694.83 884.674 699.163Q882.491 703.496 880.207 707.776Q877.923 712.057 875.538 716.282Q873.154 720.508 870.671 724.676Q868.188 728.844 865.607 732.953Q863.027 737.062 860.35 741.109Q857.674 745.155 854.903 749.138Q852.132 753.121 849.268 757.037Q846.405 760.954 843.449 764.802Q840.494 768.65 837.449 772.427Q834.404 776.204 831.271 779.909Q828.138 783.614 824.919 787.244Q821.7 790.874 818.396 794.427Q815.092 797.98 811.706 801.455Q808.319 804.929 804.852 808.323C793.469 799.191 776.357 792.49 762.011 790.05C742.39 786.712 713.89 788.888 693.398 789.358C660.43 790.113 627.162 790.741 594.201 790.129C599.403 784.822 604.869 779.925 609.778 774.315C625.688 756.135 634.056 735.73 641.581 713.128C647.169 716.973 653.063 719.761 659.979 719.946Q660.691 719.966 661.402 719.95Q662.114 719.934 662.824 719.883Q663.534 719.831 664.24 719.743Q664.947 719.655 665.648 719.532Q666.349 719.409 667.043 719.25Q667.737 719.091 668.422 718.897Q669.107 718.704 669.781 718.476Q670.456 718.248 671.118 717.986Q671.78 717.724 672.427 717.428Q673.075 717.133 673.707 716.806Q674.339 716.478 674.954 716.119Q675.568 715.76 676.164 715.37Q676.76 714.98 677.335 714.56Q677.91 714.141 678.463 713.693Q679.016 713.245 679.546 712.769Q680.076 712.294 680.581 711.792Q681.127 711.263 681.645 710.707Q682.163 710.152 682.653 709.57Q683.142 708.989 683.602 708.384Q684.062 707.779 684.491 707.152Q684.919 706.525 685.316 705.877Q685.713 705.229 686.076 704.561Q686.44 703.894 686.769 703.209Q687.099 702.525 687.394 701.824Q687.688 701.124 687.947 700.409Q688.206 699.695 688.429 698.969Q688.652 698.242 688.838 697.505Q689.024 696.769 689.173 696.023Q689.321 695.278 689.432 694.526Q689.543 693.775 689.616 693.018Q689.689 692.262 689.724 691.503Q689.759 690.744 689.756 689.984C689.713 681.827 686.583 673.579 680.645 667.904C673.907 661.465 665.538 659.304 656.437 659.515C642.679 635.523 629.979 624.3 609.188 607.177C635.233 602.282 692.817 588.476 711.868 569.626C723.671 557.948 722.328 543.776 722.401 528.484C734.161 528.793 749.432 531.186 758.902 522.789C764.212 518.081 765.408 512.603 765.927 505.869Q767.677 504.367 769.372 502.804C787.379 486.111 798.633 464.563 799.485 439.843Q799.571 437.864 799.568 435.883Q799.566 433.902 799.475 431.923Q799.384 429.944 799.205 427.972Q799.025 425.999 798.758 424.036Q798.491 422.073 798.136 420.124Q797.781 418.175 797.339 416.244Q796.898 414.313 796.37 412.404Q795.843 410.494 795.231 408.61Q794.619 406.726 793.923 404.872Q793.227 403.017 792.449 401.195Q791.671 399.373 790.813 397.588Q789.954 395.803 789.017 394.058Q788.079 392.313 787.064 390.612Q786.05 388.91 784.96 387.256Q783.871 385.601 782.708 383.997Q781.546 382.393 780.313 380.843C776.28 375.794 771.127 371.551 767.271 366.427C763.722 361.71 762.281 356.048 758.022 351.642C749.309 342.63 733.308 344.826 721.811 344.878C721.696 333.123 723.872 312.648 717.863 302.846C715.806 299.492 713.008 296.861 709.678 294.792C702.668 290.435 681.894 284.105 673.493 282.233C667.551 271.865 660.871 262.586 652.956 253.656C620.755 217.322 579.784 197.984 531.435 195.012C531.205 169.927 531.482 144.81 531.544 119.722C533.123 118.889 534.66 118.018 536.141 117.019C544.988 111.051 549.105 101.629 550.989 91.478Z"/>
	<path fill="#70D2B8" d="M219.439 808.216Q215.937 804.75 212.517 801.203Q209.097 797.656 205.762 794.029Q202.426 790.402 199.177 786.698Q195.928 782.994 192.767 779.214Q189.606 775.434 186.535 771.582Q183.464 767.729 180.484 763.804Q177.504 759.88 174.618 755.887Q171.731 751.894 168.939 747.833Q166.148 743.773 163.452 739.649Q160.757 735.524 158.159 731.337Q155.561 727.151 153.063 722.904Q150.565 718.657 148.167 714.352Q145.769 710.048 143.473 705.688Q141.177 701.328 138.985 696.916Q136.792 692.503 134.704 688.04Q132.616 683.577 130.633 679.067Q128.65 674.556 126.774 670Q124.898 665.443 123.13 660.844Q121.362 656.245 119.703 651.606Q118.043 646.966 116.493 642.289Q114.943 637.612 113.504 632.9Q112.065 628.187 110.737 623.442Q109.409 618.698 108.193 613.923Q106.976 609.148 105.873 604.346Q104.77 599.544 103.78 594.717Q102.79 589.89 101.913 585.041Q101.037 580.193 100.275 575.324Q99.5134 570.456 98.8663 565.572Q98.2192 560.687 97.6872 555.789Q97.1552 550.89 96.7386 545.981Q96.322 541.071 96.0211 536.153Q95.7201 531.235 95.535 526.311Q95.3191 521.07 95.2351 515.824Q95.1512 510.579 95.1993 505.334Q95.2474 500.088 95.4274 494.845Q95.6075 489.603 95.9195 484.366Q96.2314 479.13 96.675 473.902Q97.1187 468.675 97.6937 463.461Q98.2687 458.247 98.9748 453.049Q99.6808 447.851 100.517 442.672Q101.354 437.493 102.321 432.337Q103.288 427.182 104.384 422.052Q105.48 416.921 106.705 411.821Q107.93 406.72 109.282 401.652Q110.635 396.583 112.115 391.55Q113.595 386.518 115.201 381.524Q116.808 376.53 118.539 371.578Q120.27 366.626 122.126 361.72Q123.981 356.813 125.959 351.954Q127.938 347.096 130.038 342.289Q132.138 337.481 134.358 332.729Q136.578 327.976 138.917 323.28Q141.256 318.585 143.713 313.95Q146.169 309.315 148.742 304.743Q151.314 300.171 154.001 295.666Q156.688 291.16 159.487 286.723Q162.286 282.287 165.196 277.922Q168.106 273.557 171.125 269.267Q174.143 264.977 177.269 260.764Q180.395 256.552 183.626 252.419Q186.857 248.286 190.191 244.236Q193.525 240.186 196.96 236.221Q200.394 232.256 203.928 228.378Q207.461 224.501 211.091 220.714Q213.837 217.806 216.637 214.951Q219.438 212.096 222.293 209.296Q225.147 206.495 228.055 203.749Q230.962 201.003 233.922 198.313Q236.881 195.623 239.891 192.99Q242.902 190.357 245.961 187.781Q249.021 185.206 252.13 182.69Q255.238 180.174 258.394 177.717Q261.55 175.26 264.752 172.865Q267.954 170.469 271.201 168.134Q274.448 165.8 277.74 163.528Q281.031 161.256 284.365 159.047Q287.699 156.838 291.074 154.693Q294.45 152.548 297.865 150.468Q301.281 148.388 304.736 146.374Q308.191 144.359 311.683 142.411Q315.176 140.462 318.705 138.581Q322.234 136.7 325.799 134.886Q329.363 133.073 332.961 131.327Q336.56 129.582 340.191 127.906Q343.822 126.229 347.484 124.622Q351.146 123.016 354.839 121.479Q358.531 119.942 362.252 118.476Q365.973 117.011 369.721 115.616Q373.469 114.221 377.243 112.898Q381.017 111.575 384.816 110.325Q388.615 109.074 392.436 107.896Q396.258 106.718 400.102 105.613Q403.945 104.508 407.809 103.477Q411.673 102.445 415.556 101.488Q419.439 100.53 423.34 99.6472Q427.24 98.764 431.157 97.9553C445.246 95.1154 460.5 91.8818 474.892 91.4272C475.733 101.011 479.909 109.218 487.328 115.411C489.942 117.593 492.839 119.284 495.891 120.78L496.052 194.506C448.886 196.63 404.445 216.396 372.502 251.476C364.503 260.259 357.535 270.4 351.518 280.634C333.933 286.756 314.073 292.324 305.455 310.489C300.591 320.742 302.168 333.443 302.273 344.498C291.765 344.457 274.196 342.001 266.164 349.956C261.411 354.662 260.958 360.452 260.958 366.727C241.356 381.926 229.858 401.474 226.633 426.205Q226.496 427.232 226.385 428.262Q226.273 429.293 226.187 430.325Q226.101 431.358 226.04 432.393Q225.98 433.427 225.944 434.463Q225.909 435.498 225.899 436.535Q225.889 437.571 225.905 438.607Q225.92 439.643 225.961 440.679Q226.002 441.714 226.068 442.748Q226.135 443.782 226.226 444.815Q226.318 445.847 226.435 446.876Q226.552 447.906 226.694 448.932Q226.836 449.959 227.004 450.982Q227.171 452.004 227.363 453.023Q227.556 454.041 227.773 455.054Q227.99 456.067 228.232 457.075Q228.475 458.082 228.741 459.084Q229.008 460.085 229.299 461.08Q229.591 462.074 229.906 463.061Q230.222 464.048 230.561 465.027Q230.901 466.006 231.265 466.977Q231.628 467.947 232.015 468.908Q232.403 469.869 232.814 470.821Q233.224 471.772 233.658 472.713Q234.092 473.654 234.549 474.584Q235.006 475.514 235.486 476.433Q235.965 477.351 236.467 478.258Q236.969 479.164 237.494 480.058Q238.018 480.952 238.564 481.833Q239.109 482.714 239.677 483.581Q240.244 484.448 240.833 485.301Q241.421 486.154 242.03 486.993Q242.639 487.831 243.269 488.654C248.206 494.991 254.161 500.893 260.276 506.105C261.56 512.814 263.363 518.666 269.338 522.724C278.741 529.11 291.485 526.542 302.188 526.677C302.215 535.65 301.12 554.06 303.234 561.962C304.1 565.201 305.72 567.852 308.052 570.253C321.568 584.168 369.264 597.06 388.063 601.511C397.029 603.633 406.257 604.94 415.164 607.203C394.673 620.808 379.869 639.132 368.015 660.46C358.996 659.85 351.248 661.929 344.364 667.872C338.066 673.309 333.962 680.895 333.554 689.273C333.191 696.733 336.373 704.151 341.463 709.516C347.247 715.612 355.129 719.4 363.569 719.601C371.107 719.78 377.418 717.493 383.665 713.377C391.067 740.434 406.738 772.427 429.781 789.865C417.049 790.756 403.8 789.918 391.007 789.966L304.201 790.025C289.25 789.994 269.625 788.541 255.287 791.454C241.808 794.193 230.446 800.199 219.439 808.216Z"/>
	<path fill="#302349" d="M475.251 78.8238C477.562 68.5654 482.833 60.6938 491.785 55.026Q492.601 54.5104 493.441 54.0359Q494.281 53.5614 495.144 53.1292Q496.007 52.697 496.89 52.3081Q497.773 51.9192 498.675 51.5746Q499.576 51.2301 500.493 50.9306Q501.411 50.6312 502.342 50.3777Q503.273 50.1241 504.215 49.9171Q505.158 49.7101 506.109 49.5501Q507.061 49.3901 508.02 49.2775Q508.978 49.1649 509.941 49.1Q510.904 49.0351 511.868 49.0181Q512.833 49.0011 513.798 49.0319Q514.762 49.0628 515.724 49.1415Q516.686 49.2201 517.642 49.3465Q518.599 49.4728 519.548 49.6464Q520.498 49.82 521.437 50.0405C531.443 52.3647 540.679 58.7879 546.019 67.5986C548.165 71.1403 549.541 74.9655 550.574 78.9628C550.852 83.1499 551.067 87.2811 550.989 91.478C549.105 101.629 544.988 111.051 536.141 117.019C534.66 118.018 533.123 118.889 531.544 119.722C531.482 144.81 531.205 169.927 531.435 195.012C579.784 197.984 620.755 217.322 652.956 253.656C660.871 262.586 667.551 271.865 673.493 282.233C681.894 284.105 702.668 290.435 709.678 294.792C713.008 296.861 715.806 299.492 717.863 302.846C723.872 312.648 721.696 333.123 721.811 344.878C733.308 344.826 749.309 342.63 758.022 351.642C762.281 356.048 763.722 361.71 767.271 366.427C771.127 371.551 776.28 375.794 780.313 380.843Q781.546 382.393 782.708 383.997Q783.871 385.601 784.96 387.256Q786.05 388.91 787.065 390.612Q788.079 392.313 789.017 394.058Q789.954 395.803 790.813 397.588Q791.671 399.373 792.449 401.195Q793.227 403.017 793.923 404.872Q794.619 406.726 795.231 408.61Q795.843 410.494 796.37 412.404Q796.898 414.313 797.339 416.244Q797.781 418.175 798.136 420.124Q798.491 422.073 798.758 424.036Q799.025 425.999 799.205 427.972Q799.384 429.944 799.475 431.923Q799.566 433.902 799.569 435.883Q799.571 437.864 799.485 439.843C798.633 464.563 787.379 486.111 769.372 502.804Q767.677 504.367 765.927 505.869C765.408 512.603 764.212 518.081 758.902 522.789C749.432 531.186 734.161 528.793 722.401 528.484C722.328 543.776 723.671 557.948 711.868 569.626C692.817 588.476 635.233 602.282 609.188 607.177C629.979 624.3 642.679 635.523 656.437 659.515C665.538 659.304 673.907 661.465 680.645 667.904C686.583 673.579 689.713 681.827 689.756 689.984Q689.759 690.744 689.724 691.503Q689.689 692.262 689.616 693.018Q689.543 693.775 689.432 694.526Q689.321 695.278 689.173 696.023Q689.024 696.769 688.838 697.505Q688.652 698.242 688.429 698.969Q688.206 699.695 687.947 700.409Q687.688 701.124 687.394 701.824Q687.099 702.525 686.769 703.209Q686.44 703.894 686.076 704.561Q685.713 705.228 685.316 705.877Q684.919 706.525 684.491 707.152Q684.062 707.779 683.602 708.384Q683.142 708.989 682.653 709.57Q682.163 710.152 681.645 710.707Q681.127 711.263 680.581 711.792Q680.076 712.294 679.546 712.769Q679.016 713.245 678.463 713.693Q677.91 714.141 677.335 714.56Q676.76 714.98 676.164 715.37Q675.568 715.76 674.954 716.119Q674.339 716.478 673.707 716.806Q673.075 717.133 672.427 717.428Q671.78 717.724 671.118 717.986Q670.456 718.248 669.781 718.476Q669.107 718.704 668.422 718.897Q667.737 719.091 667.043 719.25Q666.349 719.409 665.648 719.532Q664.947 719.655 664.24 719.743Q663.534 719.831 662.824 719.883Q662.114 719.934 661.402 719.95Q660.691 719.966 659.979 719.946C653.063 719.761 647.169 716.973 641.581 713.128C634.056 735.73 625.688 756.135 609.778 774.315C604.869 779.925 599.403 784.822 594.201 790.129C589.223 789.856 576.442 791.21 573.044 789.935C571.052 790.604 505.733 790.112 498.369 789.924C491.73 790.208 455.418 790.957 451.487 789.681C444.6 790.687 436.76 789.948 429.781 789.865C406.738 772.427 391.067 740.434 383.665 713.377C377.418 717.493 371.107 719.78 363.569 719.601C355.129 719.4 347.247 715.612 341.463 709.516C336.373 704.151 333.191 696.733 333.554 689.273C333.962 680.895 338.066 673.309 344.364 667.872C351.248 661.929 358.996 659.85 368.015 660.46C379.869 639.132 394.673 620.808 415.164 607.203C406.257 604.94 397.029 603.633 388.063 601.511C369.264 597.06 321.568 584.168 308.052 570.253C305.72 567.852 304.1 565.201 303.234 561.962C301.12 554.06 302.215 535.65 302.188 526.677C291.485 526.542 278.741 529.11 269.338 522.724C263.363 518.666 261.56 512.814 260.276 506.105C254.161 500.893 248.206 494.991 243.269 488.654Q242.639 487.831 242.03 486.993Q241.421 486.154 240.833 485.301Q240.244 484.448 239.677 483.581Q239.109 482.714 238.564 481.833Q238.018 480.952 237.494 480.058Q236.969 479.165 236.467 478.258Q235.965 477.351 235.486 476.433Q235.006 475.514 234.549 474.584Q234.092 473.654 233.658 472.713Q233.224 471.772 232.814 470.821Q232.403 469.869 232.015 468.908Q231.628 467.947 231.265 466.977Q230.901 466.006 230.561 465.027Q230.222 464.048 229.906 463.061Q229.59 462.074 229.299 461.08Q229.008 460.085 228.741 459.084Q228.475 458.082 228.232 457.075Q227.99 456.067 227.773 455.054Q227.556 454.041 227.363 453.023Q227.171 452.004 227.004 450.982Q226.836 449.959 226.694 448.933Q226.552 447.906 226.435 446.876Q226.318 445.847 226.226 444.815Q226.135 443.782 226.068 442.748Q226.002 441.714 225.961 440.679Q225.92 439.643 225.905 438.607Q225.889 437.571 225.899 436.535Q225.909 435.498 225.944 434.463Q225.98 433.427 226.04 432.393Q226.101 431.358 226.187 430.325Q226.273 429.293 226.385 428.262Q226.496 427.232 226.633 426.205C229.858 401.474 241.356 381.926 260.958 366.727C260.958 360.452 261.411 354.662 266.164 349.956C274.196 342.001 291.765 344.457 302.273 344.498C302.168 333.443 300.591 320.742 305.455 310.489C314.073 292.324 333.933 286.756 351.518 280.634C357.535 270.4 364.503 260.259 372.502 251.476C404.445 216.396 448.886 196.63 496.052 194.506L495.891 120.78C492.839 119.284 489.942 117.593 487.328 115.411C479.909 109.218 475.733 101.011 474.892 91.4272C474.906 87.2126 474.937 83.03 475.251 78.8238Z"/>
	<path fill="#F8FBFD" d="M421.913 619.007C422.612 620.523 420.357 625.203 419.764 626.946Q413.737 644.391 410.028 662.472L382.63 662.461L382.316 662.196L382.313 661.2C390.69 644.64 406.916 629.648 421.913 619.007Z"/>
	<path fill="#079FC6" d="M508.134 124.505L519.028 124.48L519.181 194.708L508.065 194.701L508.134 124.505Z"/>
	<path fill="#F8FBFD" d="M601.917 619.29C617.684 626.755 635.627 647.8 644.475 662.515Q629.159 662.445 613.844 662.617C611.838 647.566 607.187 633.464 601.917 619.29Z"/>
	<path fill="#00C5D0" d="M362.606 673.633C366.523 673.595 370.111 674.283 373.394 676.513C377.691 679.432 380.249 684.32 380.977 689.388C381.567 693.489 380.88 697.725 378.27 701.04C375.322 704.784 371.131 706.147 366.557 706.66C362.324 706.639 358.848 706.173 355.19 703.796Q354.446 703.312 353.755 702.755Q353.064 702.198 352.433 701.575Q351.801 700.951 351.236 700.267Q350.671 699.583 350.177 698.846Q349.684 698.108 349.267 697.325Q348.85 696.541 348.515 695.72Q348.179 694.898 347.928 694.047Q347.677 693.196 347.513 692.324Q347.437 691.934 347.382 691.541Q347.326 691.148 347.292 690.752Q347.257 690.357 347.243 689.96Q347.23 689.563 347.237 689.166Q347.244 688.769 347.273 688.373Q347.301 687.977 347.35 687.583Q347.399 687.189 347.469 686.799Q347.538 686.408 347.629 686.021Q347.719 685.634 347.83 685.253Q347.94 684.872 348.071 684.497Q348.201 684.122 348.351 683.754Q348.501 683.387 348.671 683.028Q348.84 682.668 349.028 682.319Q349.216 681.969 349.422 681.63Q349.629 681.291 349.852 680.963Q350.076 680.635 350.317 680.319C353.438 676.214 357.66 674.436 362.606 673.633Z"/>
	<path fill="#70D2B8" d="M359.256 679.122C361.049 678.998 362.786 679.002 364.533 679.486C367.33 680.261 369.857 682.302 371.17 684.892Q371.407 685.349 371.593 685.828Q371.779 686.308 371.914 686.805Q372.048 687.301 372.128 687.809Q372.209 688.317 372.235 688.831Q372.26 689.345 372.231 689.859Q372.202 690.372 372.118 690.88Q372.035 691.387 371.897 691.883Q371.76 692.379 371.57 692.857C370.252 696.18 367.655 698.064 364.517 699.503C361.751 699.595 359.332 699.741 356.821 698.336C354.218 696.879 352.127 694.352 351.307 691.473C350.579 688.913 350.765 686.093 352.176 683.798C353.814 681.134 356.278 679.764 359.256 679.122Z"/>
	<path fill="#00C5D0" d="M656.891 672.591C660.418 672.403 663.952 672.722 667.233 674.113C671.361 675.865 674.657 679.09 676.292 683.288Q676.612 684.112 676.847 684.964Q677.083 685.815 677.232 686.686Q677.382 687.557 677.443 688.439Q677.505 689.32 677.478 690.203Q677.451 691.087 677.336 691.963Q677.221 692.839 677.019 693.699Q676.816 694.56 676.529 695.395Q676.242 696.231 675.873 697.034C673.454 702.313 669.317 705.156 664.077 707.155Q663.32 707.278 662.556 707.336Q661.791 707.394 661.024 707.388Q660.257 707.382 659.494 707.311Q658.73 707.24 657.976 707.105Q657.221 706.97 656.48 706.772Q655.739 706.574 655.018 706.314Q654.297 706.055 653.599 705.735Q652.903 705.415 652.235 705.038Q651.842 704.81 651.461 704.562Q651.08 704.314 650.712 704.048Q650.343 703.781 649.989 703.496Q649.635 703.211 649.295 702.909Q648.956 702.607 648.632 702.288Q648.308 701.969 648 701.634Q647.693 701.3 647.402 700.95Q647.112 700.6 646.839 700.236Q646.567 699.872 646.313 699.495Q646.06 699.118 645.825 698.728Q645.591 698.339 645.376 697.938Q645.162 697.537 644.967 697.126Q644.773 696.715 644.6 696.295Q644.427 695.875 644.275 695.446Q644.123 695.018 643.992 694.582Q643.862 694.147 643.754 693.705C642.608 689.188 643.19 684.179 645.638 680.175C648.257 675.891 652.152 673.794 656.891 672.591Z"/>
	<path fill="#F8FBFD" d="M660.422 682.037C661.85 681.929 663.493 681.721 664.895 682.059C666.754 682.507 668.535 683.878 669.543 685.485Q669.717 685.759 669.862 686.049Q670.007 686.339 670.123 686.643Q670.238 686.946 670.323 687.26Q670.407 687.573 670.46 687.893Q670.512 688.213 670.533 688.537Q670.553 688.861 670.54 689.186Q670.528 689.51 670.483 689.831Q670.438 690.153 670.361 690.468C669.701 693.283 667.789 694.804 665.409 696.194C664.154 696.429 662.767 696.558 661.493 696.37C659.642 696.097 657.851 694.876 656.814 693.337C655.693 691.673 655.424 689.707 655.819 687.757C656.399 684.893 658.073 683.548 660.422 682.037Z"/>
	<path fill="#FBD596" d="M765.864 383.696C775.778 392.881 782.488 408.169 785.172 421.201Q785.548 422.978 785.836 424.772Q786.124 426.565 786.323 428.371Q786.523 430.176 786.634 431.989Q786.744 433.803 786.766 435.619Q786.787 437.435 786.72 439.251Q786.652 441.066 786.495 442.876Q786.339 444.685 786.093 446.485Q785.848 448.285 785.514 450.071Q785.18 451.856 784.76 453.623Q784.339 455.39 783.832 457.135Q783.325 458.879 782.732 460.596Q782.14 462.314 781.464 464Q780.789 465.686 780.031 467.337Q779.273 468.988 778.435 470.599Q777.597 472.211 776.681 473.78Q775.765 475.348 774.773 476.87C771.821 480.886 768.86 484.87 765.729 488.749Q766.344 436.223 765.864 383.696Z"/>
	<path fill="#FBD596" d="M260.957 383.472C261.414 383.989 261.444 384.876 261.459 385.53C261.738 398.266 261.22 411.088 261.111 423.831Q260.796 456.703 261.4 489.57C257.715 486.08 254.521 482.376 251.559 478.255C243.663 467.418 238.754 453.297 238.494 439.888C238.069 418.01 245.881 399.056 260.957 383.472Z"/>
	<path fill="#00C5D0" d="M446.892 611.508C453.932 611.466 461.287 612.535 468.329 612.982C478.772 613.644 489.288 613.881 499.752 614.162C526.005 614.868 552.29 613.509 578.487 611.861C574.783 615.119 570.578 617.852 566.427 620.496C552.068 628.604 537.608 633.089 521.13 634.22C494.174 636.069 467.472 629.517 446.892 611.508Z"/>
	<path fill="#70D2B8" d="M721.902 357.651C729.641 357.651 742.147 356.019 748.178 361.808C749.964 363.521 751.36 365.749 751.923 368.172C753.414 374.585 752.554 382.643 752.54 389.236L752.475 425.318Q737.259 425.014 722.041 425.208C721.818 402.704 721.688 380.154 721.902 357.651Z"/>
	<path fill="#70D2B8" d="M509.367 61.6373C515.13 60.8892 521.274 61.9963 526.279 64.9587Q526.826 65.2853 527.357 65.639Q527.887 65.9928 528.399 66.3728Q528.911 66.7528 529.403 67.1581Q529.895 67.5634 530.365 67.993Q530.836 68.4225 531.285 68.8753Q531.734 69.328 532.159 69.8028Q532.585 70.2775 532.985 70.7731Q533.386 71.2687 533.762 71.7839Q534.137 72.299 534.486 72.8324Q534.835 73.3658 535.157 73.9161Q535.479 74.4664 535.772 75.0322Q536.066 75.598 536.331 76.1779Q536.595 76.7578 536.831 77.3502Q537.066 77.9427 537.271 78.5463Q537.476 79.1498 537.65 79.7629Q537.825 80.3761 537.968 80.9972C539.525 87.7057 538.714 95.1416 534.84 100.937C530.438 107.522 523.763 110.591 516.266 111.984C509.553 112.55 503.157 111.426 497.476 107.625Q496.948 107.272 496.439 106.892Q495.929 106.511 495.441 106.105Q494.952 105.699 494.485 105.268Q494.018 104.837 493.574 104.383Q493.13 103.928 492.71 103.451Q492.29 102.974 491.896 102.476Q491.501 101.978 491.133 101.46Q490.765 100.942 490.424 100.406Q490.083 99.8699 489.771 99.3166Q489.458 98.7633 489.175 98.1946Q488.891 97.6259 488.638 97.0432Q488.384 96.4605 488.161 95.8655Q487.938 95.2704 487.746 94.6646Q487.555 94.0588 487.395 93.4439Q487.234 92.8289 487.106 92.2065Q486.979 91.5841 486.883 90.9559Q486.785 90.3187 486.718 89.6775Q486.651 89.0363 486.615 88.3926Q486.579 87.7489 486.575 87.1042Q486.571 86.4595 486.598 85.8154Q486.625 85.1712 486.683 84.5292Q486.741 83.8871 486.831 83.2486Q486.92 82.6102 487.041 81.9769Q487.161 81.3435 487.313 80.7168Q487.464 80.09 487.645 79.4714Q487.827 78.8528 488.038 78.2437Q488.249 77.6347 488.49 77.0366Q488.731 76.4386 489.001 75.8529Q489.27 75.2673 489.568 74.6955Q489.866 74.1237 490.191 73.567Q490.516 73.0104 490.868 72.4702Q491.22 71.9301 491.598 71.4077C496.109 65.2161 502.108 62.8639 509.367 61.6373Z"/>
	<path fill="#70D2B8" d="M274.56 424.024C274.353 417.534 273.945 360.527 275.298 359.3C278.601 356.304 297.333 357.472 302.055 357.483L302.089 424.005L302.068 435.429Q288.335 435.557 274.603 435.416L274.56 424.024Z"/>
	<path fill="#F8FBFD" d="M274.56 424.024C283.713 423.731 292.93 423.979 302.089 424.005L302.068 435.429Q288.335 435.557 274.603 435.416L274.56 424.024Z"/>
	<path fill="#70D2B8" d="M274.603 435.416Q288.335 435.557 302.068 435.429L302.076 514.493C295.634 514.505 280.735 516.003 275.864 512.327C273.144 505.944 274.53 447.052 274.603 435.416Z"/>
	<path fill="#03A1A0" d="M540.012 208.397C573.935 209.12 614.141 230.776 637.305 254.883C643.553 261.385 650.014 268.137 655.195 275.532Q624.648 267.166 593.372 262.167C585.426 245.942 573.027 229.356 557.972 219.107C552.19 215.171 545.897 212.139 540.012 208.397Z"/>
	<path fill="#03A1A0" d="M368.873 276.553C370.291 274.161 372.001 271.898 373.686 269.689Q375.459 267.393 377.314 265.162Q379.169 262.931 381.103 260.768Q383.037 258.606 385.048 256.514Q387.058 254.422 389.143 252.405Q391.228 250.387 393.384 248.446Q395.54 246.504 397.765 244.642Q399.99 242.78 402.28 240.999Q404.57 239.218 406.923 237.521Q409.276 235.823 411.689 234.212Q414.102 232.601 416.571 231.077Q419.04 229.554 421.562 228.12Q424.085 226.687 426.657 225.345Q429.23 224.004 431.849 222.756Q434.468 221.508 437.131 220.355Q439.793 219.202 442.495 218.146Q445.197 217.09 447.936 216.132C453.773 214.109 459.89 211.99 466.022 211.18Q464.787 212.383 463.61 213.642Q462.433 214.901 461.315 216.214Q460.198 217.526 459.142 218.889Q458.087 220.252 457.096 221.663Q456.106 223.073 455.182 224.528Q454.258 225.983 453.402 227.48Q452.547 228.977 451.762 230.511Q450.977 232.046 450.264 233.615Q449.552 235.185 448.913 236.786Q448.274 238.387 447.71 240.016Q447.147 241.645 446.659 243.298Q446.172 244.952 445.762 246.626Q445.352 248.3 445.02 249.992Q444.689 251.683 444.436 253.389Q444.183 255.094 444.01 256.809Q443.837 258.524 443.744 260.245C418.629 263.337 392.699 267.884 368.873 276.553Z"/>
	<path fill="#03A1A0" d="M722.041 425.208Q737.259 425.014 752.475 425.318L752.497 436.015L752.425 484.499C752.384 491.887 753.112 500.28 751.858 507.523C751.511 509.523 750.695 511.221 749.272 512.681C744.486 517.594 728.612 515.616 722.197 515.537Q721.874 475.768 722.019 436L722.041 425.208Z"/>
	<path fill="#F8FBFD" d="M722.041 425.208Q737.259 425.014 752.475 425.318L752.497 436.015L722.019 436L722.041 425.208Z"/>
	<path fill="#F8FBFD" d="M437.014 620.743C449.268 634.089 475.392 643.553 492.762 646.33Q495.26 646.736 497.772 647.038Q500.284 647.341 502.807 647.541Q505.33 647.74 507.858 647.836Q510.387 647.932 512.917 647.924Q515.448 647.917 517.976 647.805Q520.504 647.693 523.025 647.478Q525.547 647.263 528.057 646.945Q530.567 646.626 533.063 646.205Q535.558 645.784 538.034 645.261Q540.509 644.738 542.962 644.114Q545.414 643.489 547.839 642.765Q550.263 642.041 552.656 641.218Q555.049 640.395 557.406 639.474Q559.763 638.554 562.081 637.537Q564.398 636.521 566.672 635.41Q568.946 634.3 571.172 633.097C577.333 629.69 582.951 625.473 588.637 621.345C593.246 630.779 595.816 640.983 598.365 651.116L601.211 662.234Q568.209 662.611 535.205 662.488L423.089 662.583C425.925 650.846 431.02 630.723 437.014 620.743Z"/>
	<path fill="#70D2B8" d="M466.022 211.18C482.587 206.4 500.914 207.256 517.998 207.309C525.162 207.331 532.988 206.882 540.012 208.397C545.897 212.139 552.19 215.171 557.972 219.107C573.027 229.356 585.426 245.942 593.372 262.167C543.993 254.425 493.336 255.195 443.744 260.245Q443.837 258.524 444.01 256.809Q444.183 255.094 444.436 253.389Q444.689 251.683 445.02 249.992Q445.352 248.3 445.762 246.626Q446.172 244.952 446.659 243.298Q447.147 241.645 447.71 240.016Q448.274 238.387 448.913 236.786Q449.552 235.185 450.264 233.615Q450.977 232.046 451.762 230.511Q452.547 228.977 453.402 227.48Q454.258 225.983 455.182 224.528Q456.106 223.073 457.097 221.663Q458.087 220.252 459.143 218.889Q460.198 217.526 461.315 216.214Q462.433 214.901 463.61 213.642Q464.787 212.383 466.022 211.18Z"/>
	<path fill="#ACCFDF" d="M678.942 296.737C685.49 299.124 704.462 304.422 707.12 310.575C708.251 313.195 708.773 316.112 708.943 318.95C709.712 331.797 709.237 345.014 709.278 357.908L709.169 438.372L709.422 511.83C709.372 522.699 709.608 533.759 708.949 544.606C708.769 547.57 708.221 550.066 707.036 552.797C705.738 555.789 704.273 558.507 701.953 560.845C694.894 567.957 680.279 573.5 670.783 577.178C596.02 606.135 480.354 606.681 402.656 591.533C377.78 586.684 352.432 579.28 329.256 568.95C324.862 566.992 317.759 564.046 315.912 559.264C315.173 557.351 314.985 555.152 314.932 553.118C314.601 540.406 314.962 527.585 314.942 514.861L314.952 425.896L314.872 360.617C314.838 348.753 314.447 336.742 314.882 324.897C315 321.702 315.119 317.987 316.572 315.106C321.483 305.363 331.918 301.616 341.682 298.385C339.832 301.158 338.025 304.068 336.614 307.092C333.94 312.828 333.175 319.021 332.837 325.28C331.386 352.118 333.452 379.119 333.339 405.972L332.767 477.641C332.697 491.212 332.409 504.973 333.061 518.528C333.234 522.131 333.818 525.914 335.16 529.28C338.206 536.924 348.167 543.279 355.349 546.531C378.174 556.869 403.371 561.579 427.992 565.167Q437.54 566.629 447.133 567.759Q456.726 568.889 466.352 569.687Q475.978 570.485 485.626 570.95Q495.274 571.415 504.932 571.546Q514.591 571.676 524.248 571.473Q533.905 571.27 543.549 570.732Q553.193 570.195 562.813 569.325Q572.433 568.455 582.017 567.252C608.564 564.112 635.148 559.402 660.199 549.713C670.322 545.797 678.134 540.952 684.824 532.308C686.11 530.648 687.62 528.878 688.436 526.93C689.948 523.322 690.726 519.305 690.921 515.404C691.535 503.112 691.035 490.597 690.97 478.278L690.569 402.092C690.628 383.918 691.277 365.747 691.385 347.571C691.443 337.919 691.921 327.93 690.475 318.373C688.721 306.78 682.13 305.391 679.253 297.639C679.142 297.341 679.046 297.037 678.942 296.737Z"/>
	<path fill="#F8FBFD" d="M393.382 674.45C415.414 674.038 437.497 674.259 459.534 674.223L605.877 674.533C614.26 674.572 622.706 674.411 631.075 674.913C630.971 683.062 631.118 691.445 629.854 699.514C625.398 727.961 609.253 755.762 588.78 775.771C583.728 780.708 578.266 785.186 573.044 789.935C571.052 790.604 505.733 790.112 498.369 789.924C491.73 790.208 455.418 790.957 451.487 789.681C444.838 784.711 438.271 779.634 432.326 773.82C404.021 746.141 393.824 713.217 393.382 674.45Z"/>
	<path fill="#ACCFDF" d="M605.877 674.533C614.26 674.572 622.706 674.411 631.075 674.913C630.971 683.062 631.118 691.445 629.854 699.514C625.398 727.961 609.253 755.762 588.78 775.771C583.728 780.708 578.266 785.186 573.044 789.935C571.052 790.604 505.733 790.112 498.369 789.924C504.114 789.067 510.511 789.512 516.323 789.497L552.242 789.57C559.04 784.721 565.126 779.42 570.789 773.277C597.018 744.828 607.477 712.907 605.877 674.533Z"/>
	<path fill="#F8FBFD" d="M341.682 298.385Q342.492 297.99 343.307 297.606C359.853 289.818 377.833 286.247 395.554 282.216Q402.271 280.646 409.029 279.26Q415.786 277.873 422.579 276.672Q429.371 275.47 436.194 274.454Q443.017 273.438 449.865 272.609Q456.713 271.779 463.582 271.136Q470.45 270.494 477.333 270.039Q484.216 269.583 491.109 269.316Q498.002 269.049 504.9 268.969Q511.797 268.89 518.695 268.999Q525.592 269.107 532.484 269.404Q539.375 269.701 546.257 270.185Q553.138 270.67 560.003 271.341Q566.868 272.013 573.713 272.872Q580.557 273.731 587.376 274.776Q594.195 275.821 600.982 277.051Q607.77 278.282 614.521 279.697C636.412 284.061 657.905 289.166 678.942 296.737C679.046 297.037 679.142 297.341 679.253 297.639C682.13 305.391 688.721 306.78 690.475 318.373C691.921 327.93 691.443 337.919 691.385 347.571C691.277 365.747 690.628 383.918 690.569 402.092L690.97 478.278C691.035 490.597 691.535 503.112 690.921 515.404C690.726 519.305 689.948 523.322 688.436 526.93C687.62 528.878 686.11 530.648 684.824 532.308C678.134 540.952 670.322 545.797 660.199 549.713C635.148 559.402 608.564 564.112 582.017 567.252Q572.433 568.455 562.813 569.325Q553.193 570.195 543.549 570.732Q533.905 571.27 524.248 571.473Q514.591 571.676 504.932 571.546Q495.274 571.415 485.626 570.95Q475.978 570.485 466.352 569.687Q456.726 568.889 447.133 567.759Q437.54 566.629 427.992 565.167C403.371 561.579 378.174 556.869 355.349 546.531C348.167 543.279 338.206 536.924 335.16 529.28C333.818 525.914 333.234 522.131 333.061 518.528C332.409 504.973 332.697 491.212 332.767 477.641L333.339 405.972C333.452 379.119 331.386 352.118 332.837 325.28C333.175 319.021 333.94 312.828 336.614 307.092C338.025 304.068 339.832 301.158 341.682 298.385Z"/>
	<path fill="#302349" d="M456.557 503.043C462.963 502.704 469.555 503.034 475.982 502.995Q497.924 502.807 519.866 502.892C534.461 502.95 550.493 502.124 564.854 503.064C566.997 503.204 570.493 503.332 572.156 504.718C573.161 506.386 573.69 507.721 573.562 509.705C572.971 518.925 560.592 531.625 553.856 537.27C551.77 538.873 549.674 540.476 547.44 541.87C532.84 550.979 513.707 554.189 496.953 550.112Q495.304 549.7 493.677 549.207Q492.05 548.713 490.45 548.139Q488.85 547.565 487.281 546.911Q485.711 546.258 484.177 545.527Q482.642 544.796 481.146 543.989Q479.649 543.182 478.195 542.301Q476.741 541.421 475.333 540.469Q473.924 539.516 472.565 538.495Q471.206 537.474 469.9 536.386Q468.594 535.298 467.344 534.146Q466.093 532.994 464.902 531.782Q463.711 530.569 462.582 529.298Q461.453 528.027 460.389 526.701Q459.325 525.376 458.328 523.999Q457.331 522.621 456.405 521.196Q455.478 519.771 454.624 518.301C452.784 515.195 450.776 511.153 451.885 507.472C452.616 505.041 454.438 504.093 456.557 503.043Z"/>
	<path fill="#302349" d="M606.27 336.657C617.351 335.066 628.955 339.473 637.695 346.047C655.053 359.103 665.162 381.242 668.135 402.358C671.702 427.688 666.547 456.841 650.841 477.556C641.296 490.145 629.536 498.093 613.784 500.253C603.002 501.528 592.111 498.03 583.422 491.73C564.905 478.305 555.54 457.094 552.092 434.993C548.175 409.887 553.345 381.346 568.525 360.623C578.297 347.283 589.775 339.213 606.27 336.657Z"/>
	<path fill="#F8FBFD" d="M586.542 413.015C588.04 412.946 589.518 412.872 590.966 413.332Q591.369 413.461 591.758 413.629Q592.146 413.796 592.517 414.001Q592.887 414.207 593.235 414.447Q593.584 414.687 593.907 414.961Q594.23 415.234 594.525 415.538Q594.819 415.842 595.083 416.173Q595.346 416.505 595.576 416.86Q595.805 417.216 595.999 417.592C597.358 420.214 597.354 423.364 596.352 426.103C595.136 429.428 593.122 431.008 589.995 432.45C588.866 432.468 587.758 432.382 586.656 432.126C584.339 431.588 582.172 429.952 580.939 427.928C579.511 425.582 579.251 422.744 580.024 420.131C581.079 416.564 583.369 414.693 586.542 413.015Z"/>
	<path fill="#F8FBFD" d="M611.933 364.583C616.902 364.232 621.234 364.673 625.784 366.927C632.403 370.206 637.044 376.033 639.291 383.004Q639.517 383.693 639.709 384.393Q639.9 385.092 640.056 385.8Q640.212 386.509 640.332 387.224Q640.452 387.939 640.536 388.659Q640.62 389.38 640.667 390.103Q640.715 390.827 640.726 391.552Q640.737 392.277 640.712 393.002Q640.686 393.727 640.624 394.449Q640.562 395.172 640.464 395.891Q640.366 396.609 640.232 397.322Q640.098 398.035 639.928 398.74Q639.758 399.445 639.553 400.14Q639.348 400.836 639.108 401.52Q638.869 402.205 638.595 402.876Q638.321 403.548 638.013 404.205Q637.706 404.861 637.366 405.502C633.713 412.438 628.031 416.66 620.599 418.934C615.787 419.856 610.891 419.164 606.463 417.056C599.809 413.89 594.927 407.934 592.693 400.961C590.267 393.394 590.844 384.822 594.578 377.773C598.461 370.443 604.297 366.946 611.933 364.583Z"/>
	<path fill="#302349" d="M410.96 335.689C423.242 334.431 435.586 339.404 445.118 346.912C461.875 360.11 470.727 382.816 473.085 403.497C476.034 429.352 470.55 458.337 453.973 479.001C444.689 490.574 432.587 498.688 417.623 500.273C417.534 500.288 417.446 500.309 417.356 500.317C405.723 501.27 395.563 497.657 386.292 490.69C368.632 477.421 359.081 456.231 356.147 434.749C352.664 409.246 356.602 380.603 372.58 359.704C382.527 346.694 394.476 337.867 410.96 335.689Z"/>
	<path fill="#F8FBFD" d="M386.527 415.563C387.879 415.457 389.334 415.276 390.683 415.444C392.893 415.72 394.981 417.254 396.238 419.039C397.531 420.878 397.93 423.325 397.447 425.505C396.723 428.78 394.815 430.599 392.077 432.329C390.606 432.409 388.99 432.575 387.534 432.375C385.427 432.087 383.391 430.645 382.228 428.897C380.925 426.939 380.606 424.656 381.111 422.382C381.855 419.033 383.706 417.297 386.527 415.563Z"/>
	<path fill="#F8FBFD" d="M416.872 364.665C422.24 365.065 427.176 366.316 431.627 369.502C437.655 373.816 441.587 380.694 442.645 387.993C443.723 395.425 441.919 402.932 437.306 408.887C432.482 415.115 426.338 418.361 418.651 419.398C413.336 419.563 408.31 418.369 403.941 415.242C398.119 411.074 394.14 404.302 392.995 397.258Q392.875 396.553 392.791 395.843Q392.707 395.133 392.659 394.42Q392.611 393.707 392.599 392.992Q392.587 392.277 392.611 391.563Q392.636 390.848 392.696 390.136Q392.757 389.423 392.854 388.715Q392.95 388.007 393.082 387.304Q393.215 386.602 393.383 385.907Q393.55 385.212 393.753 384.526Q393.956 383.841 394.193 383.166Q394.43 382.492 394.702 381.83Q394.973 381.169 395.277 380.522Q395.581 379.875 395.918 379.244Q396.255 378.614 396.623 378.001Q396.991 377.388 397.39 376.795Q397.789 376.201 398.217 375.629C402.847 369.421 409.234 365.791 416.872 364.665Z"/>
</svg>
